<?xml version="1.0" standalone="no"?>
<!DOCTYPE svg PUBLIC "-//W3C//DTD SVG 20010904//EN"
 "http://www.w3.org/TR/2001/REC-SVG-20010904/DTD/svg10.dtd">
<svg version="1.0" xmlns="http://www.w3.org/2000/svg"
 width="2000.000000pt" height="740.000000pt" viewBox="0 0 2000.000000 740.000000"
 preserveAspectRatio="xMidYMid meet">
<metadata>
Created by potrace 1.15, written by Peter Selinger 2001-2017
</metadata>
<g transform="translate(0.000000,740.000000) scale(0.100000,-0.100000)"
fill="#000000" stroke="none">
<path d="M0 3700 l0 -3700 10000 0 10000 0 0 3700 0 3700 -10000 0 -10000 0 0
-3700z m10750 1130 c19 -5 50 -19 68 -30 28 -18 32 -25 32 -65 0 -29 -5 -48
-13 -51 -8 -3 -42 9 -78 26 -142 67 -279 15 -265 -102 7 -64 37 -92 174 -162
139 -71 180 -102 211 -164 44 -86 18 -226 -55 -294 -58 -54 -118 -73 -234 -73
-95 0 -111 3 -168 29 -35 16 -67 37 -72 47 -19 34 -9 99 15 99 7 0 40 -15 75
-32 47 -25 78 -33 130 -36 85 -5 130 9 170 54 24 28 30 44 30 80 0 85 -26 111
-191 190 -151 72 -212 148 -213 260 0 179 178 283 384 224z m1560 9 c125 -20
209 -78 259 -178 40 -80 54 -151 54 -271 0 -177 -44 -303 -134 -384 -78 -70
-140 -90 -279 -90 -133 0 -197 19 -268 79 -145 125 -176 478 -59 678 61 103
188 170 332 176 17 0 59 -4 95 -10z m-6407 -11 c16 -12 17 -49 15 -458 l-3
-445 -48 -3 c-27 -2 -55 2 -63 9 -12 10 -14 83 -14 450 0 407 1 439 18 448 24
14 75 13 95 -1z m1131 2 l26 -10 0 -431 c0 -493 4 -469 -81 -469 -62 0 -95 27
-142 117 -20 38 -105 197 -189 354 l-153 285 3 -366 c4 -414 8 -393 -75 -388
l-48 3 -3 433 c-1 287 1 440 8 452 9 17 21 20 79 20 51 0 74 -5 90 -17 19 -17
217 -376 332 -605 27 -54 50 -98 52 -98 2 0 1 150 -1 334 -3 184 -2 346 2 360
5 22 18 30 63 35 6 0 23 -3 37 -9z m961 -9 c78 -27 113 -55 121 -96 7 -41 -2
-75 -23 -75 -8 0 -28 9 -43 20 -94 67 -215 80 -308 34 -98 -49 -147 -157 -147
-329 0 -131 20 -204 72 -265 54 -62 103 -84 195 -84 71 -1 83 2 158 42 45 23
86 40 91 36 5 -3 9 -25 9 -49 0 -53 -29 -81 -117 -116 -47 -18 -78 -23 -158
-23 -89 0 -107 3 -162 28 -147 67 -223 211 -223 421 0 107 19 194 59 273 28
56 103 136 152 162 80 44 232 53 324 21z m606 9 c18 -10 19 -25 19 -405 l0
-395 165 0 165 0 10 -24 c5 -13 5 -37 1 -53 l-7 -28 -214 -3 c-188 -2 -215 0
-231 14 -18 16 -19 41 -19 450 0 402 1 434 18 443 22 13 68 14 93 1z m776 4
l22 -6 3 -327 c3 -320 3 -327 27 -374 15 -30 38 -58 64 -75 36 -24 50 -27 127
-27 77 0 91 3 127 27 26 17 49 45 64 75 24 47 24 54 27 375 l3 327 30 6 c16 4
43 4 59 0 l31 -7 -3 -341 c-3 -333 -4 -343 -26 -393 -29 -64 -92 -126 -157
-156 -43 -19 -66 -23 -160 -22 -90 0 -118 4 -157 21 -66 31 -122 85 -149 146
-24 51 -24 59 -27 396 -2 274 0 346 10 352 15 10 54 11 85 3z m2011 0 l22 -6
-2 -452 -3 -451 -55 0 -55 0 -3 452 c-2 424 -1 452 15 456 27 7 56 7 81 1z
m2325 -11 c4 -2 7 -197 7 -434 0 -423 0 -429 -21 -450 -18 -18 -30 -21 -77
-17 -45 4 -59 10 -77 32 -21 27 -304 550 -362 669 l-28 59 -5 -379 -5 -378
-55 0 -55 0 -3 439 c-1 316 1 443 9 452 8 9 34 14 78 14 61 0 70 -3 93 -27 23
-26 245 -434 335 -616 l38 -78 5 357 5 358 25 7 c23 7 75 2 93 -8z m544 -688
c29 -20 47 -83 39 -128 -15 -80 -120 -116 -184 -62 -51 43 -49 142 5 185 31
24 108 27 140 5z m-6738 -986 c22 -8 31 -17 28 -28 -2 -9 -10 -14 -18 -12 -45
12 -67 11 -82 -4 -27 -26 -20 -43 28 -77 69 -49 74 -111 12 -148 -54 -33 -137
-20 -137 21 0 16 4 19 18 14 97 -43 157 25 72 81 -66 44 -66 113 0 146 41 21
39 21 79 7z m1468 -15 c64 -40 26 -211 -57 -255 -58 -32 -147 -17 -164 26 -10
26 -6 107 7 143 34 93 137 135 214 86z m3726 12 c20 -5 27 -12 27 -31 0 -29
-3 -30 -35 -9 -28 19 -75 12 -99 -14 -22 -25 -46 -87 -46 -119 0 -16 7 -39 16
-52 13 -18 23 -22 53 -19 20 3 44 8 55 13 29 13 16 -27 -14 -42 -42 -22 -86
-16 -122 16 -28 25 -32 34 -31 79 1 51 31 129 58 152 19 16 86 39 100 35 5 -2
22 -6 38 -9z m-5740 -3 c14 -13 -17 -33 -53 -33 l-37 0 -23 -117 c-24 -125
-30 -139 -53 -130 -12 5 -11 22 9 119 13 62 23 116 24 121 0 4 -18 7 -40 7
-33 0 -40 3 -40 20 0 19 7 20 103 20 57 0 107 -3 110 -7z m217 0 c0 -5 9 -60
20 -123 25 -145 25 -162 3 -158 -11 2 -22 18 -27 41 l-10 37 -55 0 c-54 0 -57
-1 -76 -37 -19 -36 -55 -57 -55 -32 0 11 123 240 143 267 10 13 57 17 57 5z
m688 -10 c-2 -13 -15 -19 -44 -21 l-42 -3 -22 -117 c-24 -124 -30 -138 -53
-129 -12 5 -11 22 9 119 13 62 23 116 24 121 0 4 -18 7 -40 7 -33 0 -40 3 -40
20 0 19 7 20 106 20 95 0 105 -2 102 -17z m292 2 c0 -12 -13 -15 -59 -15 -63
0 -61 2 -75 -62 -6 -28 -6 -28 44 -28 38 0 50 -4 50 -15 0 -11 -12 -15 -49
-15 -56 0 -58 -1 -67 -58 l-7 -42 57 0 c49 0 57 -2 54 -17 -3 -15 -16 -19 -76
-21 -53 -2 -74 1 -77 10 -5 13 40 251 50 269 4 5 40 9 81 9 59 0 74 -3 74 -15z
m367 -45 c10 -33 20 -60 23 -60 3 0 22 27 44 60 29 46 44 60 63 60 28 0 30 5
-44 -100 -36 -51 -56 -91 -64 -128 -10 -48 -30 -74 -46 -58 -3 3 -1 30 5 59 9
48 8 63 -14 133 -29 95 -29 94 -4 94 16 0 23 -13 37 -60z m690 48 c-2 -7 -12
-57 -22 -110 -21 -111 -16 -128 41 -128 45 0 69 26 82 86 6 27 15 75 22 107 9
46 15 57 31 57 24 0 24 -12 -1 -122 -23 -105 -32 -123 -73 -148 -69 -43 -157
-12 -157 55 0 29 24 169 35 203 3 6 14 12 26 12 13 0 19 -5 16 -12z m485 -19
c18 -24 18 -29 5 -61 -8 -20 -23 -40 -32 -45 -12 -7 -14 -15 -7 -34 5 -13 12
-43 16 -67 5 -33 3 -44 -9 -48 -22 -9 -26 -2 -36 52 -11 56 -24 74 -54 74 -19
0 -24 -8 -34 -61 -11 -55 -31 -82 -48 -66 -6 7 34 225 48 265 8 21 14 23 70
20 53 -3 65 -7 81 -29z m544 -2 c48 -56 19 -184 -51 -227 -38 -23 -158 -39
-169 -22 -5 9 35 233 49 271 4 10 23 12 76 9 63 -3 74 -7 95 -31z m542 16 c-2
-14 -15 -19 -61 -21 -39 -2 -57 -7 -57 -16 0 -8 -3 -28 -6 -45 l-6 -31 51 0
c39 0 51 -4 51 -15 0 -11 -13 -15 -54 -15 l-55 0 -12 -61 c-11 -55 -30 -82
-46 -65 -6 6 10 104 39 239 l10 47 75 0 c66 0 74 -2 71 -17z m302 9 c0 -20
-28 -32 -72 -32 -41 0 -48 -3 -53 -22 -13 -63 -13 -63 38 -66 33 -2 47 -7 47
-18 0 -10 -14 -14 -54 -14 l-54 0 -7 -49 c-8 -57 -28 -92 -44 -75 -8 7 -4 46
14 135 14 68 27 130 30 137 5 14 155 18 155 4z m298 -4 c-3 -8 -27 -14 -59
-16 -30 -2 -57 -6 -60 -10 -4 -4 -10 -24 -13 -44 l-7 -38 51 0 c69 0 63 -24
-7 -28 l-51 -3 -9 -49 -10 -50 59 0 c51 0 59 -2 56 -17 -5 -26 -145 -32 -154
-8 -6 14 25 199 42 258 5 14 18 17 86 17 59 0 79 -3 76 -12z m292 -8 c28 -28
25 -66 -9 -100 -28 -28 -28 -31 -15 -67 18 -53 18 -103 -1 -103 -17 0 -35 38
-35 75 0 30 -27 57 -53 53 -17 -2 -24 -14 -33 -61 -6 -32 -14 -60 -17 -64 -12
-12 -38 7 -33 24 2 10 14 68 26 128 12 61 23 116 25 123 3 8 25 12 65 12 47 0
64 -4 80 -20z m348 8 c-3 -8 -29 -15 -63 -18 -53 -4 -60 -8 -66 -30 -16 -56
-13 -60 42 -60 69 0 62 -24 -9 -28 -48 -3 -51 -5 -57 -35 -4 -18 -9 -40 -11
-49 -5 -16 2 -18 55 -18 34 0 61 -2 61 -4 0 -29 -16 -36 -84 -36 -40 0 -75 2
-78 5 -4 5 26 173 47 263 5 21 11 22 86 22 60 0 80 -3 77 -12z m240 -96 c21
-60 38 -98 42 -90 4 7 15 55 25 106 15 77 21 92 36 92 11 0 19 -5 19 -11 0
-26 -53 -265 -60 -272 -4 -5 -16 -6 -27 -3 -13 4 -30 39 -58 118 l-39 113 -22
-108 c-21 -108 -35 -140 -53 -122 -6 6 0 58 15 135 32 159 29 152 60 148 24
-3 30 -13 62 -106z m762 93 c0 -12 -13 -15 -59 -15 -58 0 -59 -1 -65 -31 -11
-56 -9 -59 39 -59 33 0 45 -4 45 -15 0 -11 -12 -15 -49 -15 -53 0 -52 1 -66
-67 l-7 -33 57 0 c48 0 56 -3 53 -17 -3 -15 -16 -19 -72 -21 -38 -2 -73 1 -77
5 -6 7 31 225 46 271 3 8 28 12 80 12 60 0 75 -3 75 -15z"/>
<path d="M12130 4725 c-138 -45 -208 -210 -181 -429 23 -192 105 -277 267
-276 116 1 190 47 237 149 27 58 31 78 35 179 8 204 -33 308 -143 364 -51 27
-154 33 -215 13z"/>
<path d="M14129 4111 c-20 -16 -24 -28 -24 -75 0 -71 18 -91 81 -91 59 0 84
28 84 92 0 33 -6 50 -25 68 -30 31 -83 33 -116 6z"/>
<path d="M8850 3092 c-27 -28 -50 -85 -50 -127 0 -87 120 -86 156 1 19 45 18
119 -2 138 -25 25 -72 20 -104 -12z"/>
<path d="M10120 3117 c0 -2 -9 -49 -20 -102 -11 -53 -20 -101 -20 -106 0 -15
59 -10 91 7 33 17 68 81 69 125 0 40 -29 68 -77 75 -24 4 -43 4 -43 1z"/>
</g>
</svg>
